<svg width="38" height="38" viewBox="0 0 38 38" fill="none" xmlns="http://www.w3.org/2000/svg">
<path d="M18.7857 12.0235L16.6008 12.1724C15.1879 10.4854 11.2288 6.23499 7.28603 6.23499C7.28603 6.23499 4.04969 11.1304 7.22032 17.6632C6.31677 19.0359 5.75821 19.747 5.64322 21.3844L2.4726 21.864L2.81759 23.4848L5.70893 23.0548L5.93892 24.229L3.35971 25.7836L4.13183 27.2556L6.51391 25.7836C8.40314 29.8191 13.1837 31.8699 18.7857 31.8699C24.3877 31.8699 29.1683 29.8191 31.0575 25.7836L33.4396 27.2556L34.2117 25.7836L31.6325 24.229L31.8625 23.0548L34.7538 23.4848L35.0988 21.864L31.9282 21.3844C31.8132 19.747 31.2546 19.0359 30.3511 17.6632C33.5217 11.1304 30.2854 6.23499 30.2854 6.23499C26.3426 6.23499 22.3835 10.4854 20.9706 12.1724L18.7857 12.0235ZM13.8573 16.9851C14.293 16.9851 14.7108 17.1593 15.0189 17.4695C15.327 17.7797 15.5001 18.2003 15.5001 18.639C15.5001 19.0776 15.327 19.4983 15.0189 19.8084C14.7108 20.1186 14.293 20.2928 13.8573 20.2928C13.4216 20.2928 13.0037 20.1186 12.6956 19.8084C12.3875 19.4983 12.2145 19.0776 12.2145 18.639C12.2145 18.2003 12.3875 17.7797 12.6956 17.4695C13.0037 17.1593 13.4216 16.9851 13.8573 16.9851ZM23.7141 16.9851C24.1498 16.9851 24.5677 17.1593 24.8758 17.4695C25.1839 17.7797 25.3569 18.2003 25.3569 18.639C25.3569 19.0776 25.1839 19.4983 24.8758 19.8084C24.5677 20.1186 24.1498 20.2928 23.7141 20.2928C23.2784 20.2928 22.8606 20.1186 22.5525 19.8084C22.2444 19.4983 22.0713 19.0776 22.0713 18.639C22.0713 18.2003 22.2444 17.7797 22.5525 17.4695C22.8606 17.1593 23.2784 16.9851 23.7141 16.9851ZM17.1429 21.9467H20.4285L19.2785 24.2456C19.6071 25.304 20.5271 26.0813 21.6606 26.0813C22.3142 26.0813 22.9409 25.82 23.4031 25.3547C23.8652 24.8895 24.1248 24.2585 24.1248 23.6005H24.9462C24.9462 24.4778 24.6001 25.3191 23.9839 25.9395C23.3677 26.5598 22.532 26.9083 21.6606 26.9083C20.4285 26.9083 19.3607 26.2302 18.7857 25.2544C18.2107 26.2302 17.1429 26.9083 15.9108 26.9083C15.0394 26.9083 14.2037 26.5598 13.5875 25.9395C12.9713 25.3191 12.6252 24.4778 12.6252 23.6005H13.4466C13.4466 24.2585 13.7062 24.8895 14.1683 25.3547C14.6304 25.82 15.2572 26.0813 15.9108 26.0813C17.0443 26.0813 17.9643 25.304 18.2929 24.2456L17.1429 21.9467Z" fill="#7D16FF" fill-opacity="0.69"/>
</svg>
