<svg width="38" height="38" viewBox="0 0 38 38" fill="none" xmlns="http://www.w3.org/2000/svg">
<path d="M29.7755 17.4562C22.1346 20.3605 12.1205 18.6663 8.0685 17.4562C7.37388 17.0933 8.35793 16.3973 8.93678 16.0947C9.22621 15.6409 9.89189 14.5518 10.2392 13.8258C10.6733 12.9182 12.844 13.8258 13.2782 13.372C13.7123 12.9182 15.0147 12.0107 16.3172 10.6493C17.6196 9.28793 19.3561 10.6493 20.2244 11.1031C21.0927 11.5569 21.5268 12.9183 25 14.2797C28.4731 15.641 26.7365 16.0948 28.4731 16.0948C29.8623 16.0948 29.9202 17.0024 29.7755 17.4562Z" fill="#7D16FF" fill-opacity="0.69"/>
<path fill-rule="evenodd" clip-rule="evenodd" d="M6.09148 18.3883C5.45479 18.2266 4.82959 18.7041 4.82959 19.361V25.2682C4.82959 25.7321 5.15139 26.1362 5.60347 26.24C16.088 28.6472 22.1774 28.6444 32.0688 26.247C32.5149 26.1389 32.8296 25.7378 32.8296 25.2788V19.3602C32.8296 18.7036 32.2049 18.2261 31.5683 18.3873C21.7298 20.8783 15.7469 20.8408 6.09148 18.3883ZM19.3296 26.6467C20.7103 26.6467 21.8296 25.5274 21.8296 24.1467C21.8296 22.766 20.7103 21.6467 19.3296 21.6467C17.9489 21.6467 16.8296 22.766 16.8296 24.1467C16.8296 25.5274 17.9489 26.6467 19.3296 26.6467Z" fill="#7D16FF" fill-opacity="0.69"/>
</svg>
