<svg width="14" height="12" viewBox="0 0 14 12" fill="none" xmlns="http://www.w3.org/2000/svg">
<path d="M3.93615 1.56055L3.53543 1.29279L3.93615 1.56055C4.06363 1.36975 4.24483 1.22105 4.45683 1.13324C4.66882 1.04542 4.9021 1.02245 5.12715 1.06722C5.35221 1.11198 5.55893 1.22248 5.72119 1.38473C5.88345 1.54699 5.99394 1.75372 6.03871 1.97877C6.08348 2.20383 6.0605 2.4371 5.97269 2.6491C5.88488 2.8611 5.73617 3.04229 5.54538 3.16978C5.35483 3.29709 5.13086 3.36513 4.90171 3.3653C4.59419 3.36398 4.29963 3.24123 4.08216 3.02377C3.86469 2.8063 3.74194 2.51173 3.74062 2.20421C3.7408 1.97506 3.80883 1.75109 3.93615 1.56055ZM10.2987 7.90847L10.2987 7.90849L10.302 7.91029C10.669 8.10837 10.9594 8.42333 11.127 8.80519C11.2945 9.18706 11.3298 9.61396 11.2272 10.0182C11.1245 10.4224 10.8898 10.7807 10.5603 11.0363C10.2308 11.2919 9.82534 11.4301 9.40831 11.4291H9.40698C9.1567 11.4291 8.90903 11.3783 8.67898 11.2798L8.67901 11.2797L8.67155 11.2766C7.62007 10.8461 6.44103 10.8485 5.39131 11.2834L5.39082 11.2836C5.16018 11.3794 4.91291 11.4288 4.66315 11.4291C4.24669 11.429 3.84216 11.29 3.51358 11.0341C3.18487 10.7781 2.95096 10.4198 2.8489 10.0159C2.74685 9.61195 2.78247 9.18552 2.95014 8.80412C3.11781 8.42273 3.40794 8.10818 3.77457 7.91029L3.77459 7.91033L3.78061 7.90698C4.3792 7.57316 4.82211 7.01688 5.01334 6.35872L5.01383 6.35701C5.13969 5.91803 5.40501 5.53194 5.76972 5.25711C6.13442 4.98227 6.57868 4.83362 7.03534 4.83362C7.49201 4.83362 7.93626 4.98227 8.30097 5.25711C8.66567 5.53194 8.931 5.91803 9.05685 6.35701L9.05729 6.35853C9.15223 6.68578 9.31074 6.9911 9.52375 7.25705C9.73676 7.523 10.0001 7.74436 10.2987 7.90847ZM0.982892 5.49514L0.520952 5.68648L0.982892 5.49514C0.89508 5.28314 0.872104 5.04987 0.916871 4.82481C0.961637 4.59976 1.07213 4.39303 1.23439 4.23078C1.39665 4.06852 1.60337 3.95802 1.82843 3.91326C2.05348 3.86849 2.28676 3.89147 2.49875 3.97928C2.71075 4.06709 2.89195 4.21579 3.01943 4.40659C3.14675 4.59713 3.21478 4.82111 3.21496 5.05026C3.21364 5.35778 3.09089 5.65234 2.87342 5.86981C2.65596 6.08726 2.36142 6.21001 2.05392 6.21135C1.82475 6.21118 1.60076 6.14314 1.4102 6.01582L1.13242 6.43155L1.4102 6.01582C1.21941 5.88833 1.0707 5.70714 0.982892 5.49514ZM8.00968 2.20426C8.00985 1.97509 8.07788 1.7511 8.20521 1.56055C8.33269 1.36975 8.51389 1.22105 8.72589 1.13324C8.93788 1.04542 9.17116 1.02245 9.39622 1.06722C9.62127 1.11198 9.828 1.22248 9.99025 1.38473L10.3438 1.03118L9.99025 1.38474C10.1525 1.54699 10.263 1.75372 10.3078 1.97877C10.3525 2.20382 10.3296 2.4371 10.2417 2.6491C10.1539 2.8611 10.0052 3.04229 9.81444 3.16978C9.6239 3.29709 9.39992 3.36513 9.17077 3.3653C8.86325 3.36398 8.56869 3.24123 8.35122 3.02377C8.13376 2.80631 8.01102 2.51176 8.00968 2.20426ZM11.3713 4.08649C11.5619 3.95917 11.7859 3.89114 12.015 3.89096C12.3225 3.89229 12.6171 4.01503 12.8346 4.2325C13.052 4.44998 13.1748 4.74456 13.1761 5.0521C13.1759 5.28123 13.1079 5.50519 12.9806 5.69572C12.8531 5.88652 12.6719 6.03522 12.4599 6.12303C12.2479 6.21084 12.0146 6.23382 11.7896 6.18905C11.5645 6.14429 11.3578 6.03379 11.1955 5.87153C11.0333 5.70928 10.9228 5.50255 10.878 5.2775C10.8333 5.05244 10.8562 4.81917 10.944 4.60717C11.0319 4.39517 11.1806 4.21397 11.3713 4.08649Z" stroke="#F5F5F5"/>
</svg>
